<?xml version="1.0"?>
<svg xmlns="http://www.w3.org/2000/svg" viewBox="0 0 64 64" width="512" height="512"><g id="Calendar"><path d="M15,20H9a1,1,0,0,0-1,1v6a1,1,0,0,0,1,1h6a1,1,0,0,0,1-1V21A1,1,0,0,0,15,20Zm-1,6H10V22h4Z"/><path d="M21,28h6a1,1,0,0,0,1-1V21a1,1,0,0,0-1-1H21a1,1,0,0,0-1,1v6A1,1,0,0,0,21,28Zm1-6h4v4H22Z"/><path d="M15,30H9a1,1,0,0,0-1,1v6a1,1,0,0,0,1,1h6a1,1,0,0,0,1-1V31A1,1,0,0,0,15,30Zm-1,6H10V32h4Z"/><path d="M15,40H9a1,1,0,0,0-1,1v6a1,1,0,0,0,1,1h6a1,1,0,0,0,1-1V41A1,1,0,0,0,15,40Zm-1,6H10V42h4Z"/><path d="M52,26.273V9a5.006,5.006,0,0,0-5-5H45V2H43V4H37V2H35V4H29V2H27V4H21V2H19V4H13V2H11V4H7A5.006,5.006,0,0,0,2,9V49a5.006,5.006,0,0,0,5,5H27.537A18.987,18.987,0,1,0,52,26.273ZM7,6h4V8h2V6h6V8h2V6h6V8h2V6h6V8h2V6h6V8h2V6h2a3,3,0,0,1,3,3v5H4V9A3,3,0,0,1,7,6ZM7,52a3,3,0,0,1-3-3V16H50v9.353a18.891,18.891,0,0,0-22,6.028V31a1,1,0,0,0-1-1H21a1,1,0,0,0-1,1v6a1,1,0,0,0,1,1h3.69a18.641,18.641,0,0,0-.429,2H21a1,1,0,0,0-1,1v6a1,1,0,0,0,1,1h3.69a18.856,18.856,0,0,0,1.583,4ZM26,34.566c-.233.468-.452.944-.647,1.434H22V32h4ZM24.261,46H22V42h2.051c-.018.333-.051.662-.051,1A18.9,18.9,0,0,0,24.261,46ZM52.345,57.186l-1.479-2.561-1.732,1,1.475,2.555A16.837,16.837,0,0,1,44,59.949V57H42v2.949a16.837,16.837,0,0,1-6.609-1.769l1.475-2.555-1.732-1-1.479,2.561a17.143,17.143,0,0,1-4.841-4.841l2.562-1.479-1-1.732L27.82,50.609A16.841,16.841,0,0,1,26.051,44H29V42H26.051a16.841,16.841,0,0,1,1.769-6.609l2.556,1.475,1-1.732-2.562-1.479a17.143,17.143,0,0,1,4.841-4.841l1.479,2.561,1.732-1L35.391,27.82A16.837,16.837,0,0,1,42,26.051V29h2V26.051a16.837,16.837,0,0,1,6.609,1.769l-1.475,2.555,1.732,1,1.479-2.561a17.143,17.143,0,0,1,4.841,4.841l-2.562,1.479,1,1.732,2.556-1.475A16.841,16.841,0,0,1,59.949,42H57v2h2.949a16.841,16.841,0,0,1-1.769,6.609l-2.556-1.475-1,1.732,2.562,1.479A17.143,17.143,0,0,1,52.345,57.186Z"/><path d="M44,40.184V31H42v9.184A2.993,2.993,0,1,0,45.816,44H51V42H45.816A3,3,0,0,0,44,40.184ZM43,44a1,1,0,1,1,1-1A1,1,0,0,1,43,44Z"/></g></svg>
