<svg id="netflix" enable-background="new 0 0 300 300" height="512" viewBox="0 0 300 300" width="512" xmlns="http://www.w3.org/2000/svg"><g><circle cx="254" cy="254" r="4.529"/><circle cx="174" cy="62" r="4.529"/><path d="m121.824 64.176c.781.781 1.805 1.172 2.828 1.172s2.047-.391 2.828-1.172l4.52-4.52 4.52 4.52c.781.781 1.805 1.172 2.828 1.172s2.047-.391 2.828-1.172c1.562-1.562 1.562-4.094 0-5.656l-4.52-4.52 4.52-4.52c1.562-1.562 1.562-4.094 0-5.656s-4.094-1.562-5.656 0l-4.52 4.52-4.52-4.52c-1.562-1.562-4.094-1.562-5.656 0s-1.562 4.094 0 5.656l4.52 4.52-4.52 4.52c-1.562 1.562-1.562 4.093 0 5.656z"/><path d="m253.266 92h-206.532c-8.125 0-14.734 6.609-14.734 14.734v122.531c0 8.126 6.609 14.735 14.734 14.735h87.357l-4.798 12h-37.293c-2.211 0-4 1.789-4 4s1.789 4 4 4h120c2.211 0 4-1.789 4-4s-1.789-4-4-4h-37.292l-4.802-12h83.359c8.125 0 14.734-6.609 14.734-14.734v-122.532c.001-8.125-6.608-14.734-14.733-14.734zm-206.532 8h206.531c3.715 0 6.734 3.02 6.734 6.734v105.266h-219.999v-105.266c0-3.714 3.02-6.734 6.734-6.734zm114.555 144 4.802 12h-28.181l4.798-12zm91.977-8h-206.532c-3.714 0-6.734-3.02-6.734-6.734v-9.266h220v9.266c0 3.714-3.02 6.734-6.734 6.734z"/><path d="m176 224h-48c-2.211 0-4 1.789-4 4s1.789 4 4 4h48c2.211 0 4-1.789 4-4s-1.789-4-4-4z"/><path d="m237.973 64h.031c3.727 0 7.234-1.449 9.875-4.082 2.648-2.637 4.113-6.148 4.121-9.891.008-3.738-1.441-7.258-4.082-9.906-2.637-2.648-6.148-4.113-9.891-4.121-.008 0-.02 0-.031 0-3.727 0-7.234 1.449-9.875 4.082-2.648 2.637-4.113 6.148-4.121 9.891-.008 3.738 1.441 7.258 4.082 9.906 2.637 2.648 6.148 4.113 9.891 4.121zm-4.207-18.25c1.133-1.129 2.633-1.75 4.23-1.75h.016c1.602.004 3.109.629 4.238 1.766 1.133 1.137 1.754 2.645 1.75 4.246s-.629 3.109-1.766 4.238c-1.133 1.129-2.633 1.75-4.23 1.75-.008 0-.012 0-.016 0-1.602-.004-3.109-.629-4.238-1.766-1.133-1.137-1.754-2.645-1.75-4.246s.629-3.109 1.766-4.238z"/><path d="m124 204h16c2.211 0 4-1.789 4-4v-27.182l12.324 28.756c.629 1.473 2.074 2.426 3.676 2.426h20c2.211 0 4-1.789 4-4v-84c0-1.23-.566-2.395-1.539-3.152-.977-.762-2.242-1.039-3.43-.727l-16 4c-1.781.445-3.031 2.043-3.031 3.879v25.808l-12.352-27.448c-.531-1.18-1.598-2.027-2.863-2.281l-20-4c-1.18-.23-2.395.07-3.32.828-.926.761-1.465 1.894-1.465 3.093v84c0 2.211 1.789 4 4 4zm12-8h-8v-60.514l8 18.666zm32-72.875 8-2v60.238l-8-17.778zm5.813 72.875h-11.177l-18.947-44.208c-.005-.012-.01-.023-.015-.036l-13.005-30.344 10.526 2.106z"/><path d="m50 126c1.023 0 2.047-.391 2.828-1.172l14-14c1.562-1.562 1.562-4.094 0-5.656s-4.094-1.562-5.656 0l-14 14c-1.562 1.562-1.562 4.094 0 5.656.781.781 1.805 1.172 2.828 1.172z"/><path d="m49.172 138.828c.781.781 1.805 1.172 2.828 1.172s2.047-.391 2.828-1.172l28-28c1.562-1.562 1.562-4.094 0-5.656s-4.094-1.562-5.656 0l-28 28c-1.563 1.562-1.563 4.094 0 5.656z"/></g></svg>