<svg height="512" viewBox="0 0 60 60" width="512" xmlns="http://www.w3.org/2000/svg"><g id="Page-1" fill="none" fill-rule="evenodd"><g id="039---Internet-News" fill="rgb(0,0,0)" fill-rule="nonzero"><path id="Shape" d="m30 0c-16.5685425 0-30 13.4314575-30 30s13.4314575 30 30 30 30-13.4314575 30-30c-.018737-16.5607751-13.4392249-29.98126296-30-30zm22.958 14h-4.358c-1.6275248-3.6347987-4.025927-6.87224933-7.029-9.488 4.5748485 2.08904907 8.5067263 5.36521109 11.387 9.488zm-50.933 17h3.975v3c.00572747 1.9474405 1.14166282 3.7143643 2.911 4.528.32622832 1.5156129.74739186 3.0092238 1.261 4.472h-4.96c-1.95340815-3.7085869-3.04291095-7.8108881-3.187-12zm46.975 6h-38c-1.65685425 0-3-1.3431458-3-3v-8c0-1.6568542 1.34314575-3 3-3h38c1.6568542 0 3 1.3431458 3 3v8c0 1.6568542-1.3431458 3-3 3zm-20 8v12.778c-2.593-1.024-5.036-5.916-6.515-12.778zm-6.908-2c-.2286667-1.282-.4226667-2.6153333-.582-4h7.49v4zm8.908 14.778v-12.778h6.515c-1.479 6.862-3.922 11.754-6.515 12.778zm0-14.778v-4h7.49c-.158 1.3833333-.352 2.7166667-.582 4zm0-29v-11.778c2.466.978 4.8 5.438 6.3 11.778zm6.729 2c.31 1.578.562 3.257.761 5h-7.49v-5zm-8.729-13.778v11.778h-6.3c1.5-6.34 3.834-10.8 6.3-11.778zm0 13.778v5h-7.49c.2-1.743.451-3.422.761-5zm19.924 5h-8.424c-.1926667-1.7573333-.435-3.424-.727-5h7.538c.665977 1.6225128 1.2052571 3.2941809 1.613 5zm-9.552-7c-1.091-4.937-2.665-8.771-4.562-11.167 4.7 1.646 8.825 5.648 11.59 11.167zm-18.744 0h-7.028c2.765-5.519 6.89-9.521 11.59-11.167-1.897 2.396-3.471 6.23-4.562 11.167zm-.4 2c-.29 1.5746667-.5323333 3.2413333-.727 5h-8.425c.4067674-1.7057352.9450439-3.3774015 1.61-5zm-11.317 5.472c-1.76933718.8136357-2.90527253 2.5805595-2.911 4.528v3h-3.975c.15822307-4.5752923 1.44358868-9.0407527 3.742-13h4.784c-.68874511 1.778367-1.23708986 3.6079661-1.64 5.472zm2.165 17.528h8.424c.152 1.385.33 2.727.543 4h-7.736c-.4909882-1.307164-.9020793-2.6429597-1.231-4zm9.331 6c1.094 5.427 2.758 9.609 4.783 12.167-4.977-1.743-9.299-6.137-12.052-12.167zm19.186 0h7.269c-2.753 6.03-7.075 10.424-12.052 12.167 2.025-2.558 3.69-6.74 4.783-12.167zm.367-2c.213-1.273.391-2.615.543-4h8.421c-.3289207 1.3570403-.7400118 2.692836-1.231 4zm11.129-4.472c1.7693372-.8136357 2.9052725-2.5805595 2.911-4.528v-3h3.975c-.144089 4.1891119-1.2335918 8.2914131-3.187 12h-4.96c.5136081-1.4627762.9347717-2.9563871 1.261-4.472zm2.911-9.528v-3c-.0057275-1.9474405-1.1416628-3.7143643-2.911-4.528-.4029101-1.8640339-.9512549-3.693633-1.64-5.472h4.784c2.2984113 3.9592473 3.5837769 8.4247077 3.742 13zm-35.569-24.488c-3.0037971 2.61554535-5.4028931 5.8530114-7.031 9.488h-4.358c2.88082268-4.1230646 6.8134204-7.39925102 11.389-9.488zm-12.056 40.488h4.568c1.6433527 4.0324362 4.2077523 7.6242394 7.488 10.488-4.9469556-2.2587274-9.13418408-5.9013661-12.056-10.488zm35.194 10.488c3.2802477-2.8637606 5.8446473-6.4555638 7.488-10.488h4.568c-2.9220783 4.586408-7.1092318 8.2289815-12.056 10.488z"/><path id="Shape" d="m45 29c-.4851707-.000473-.9000069-.3491365-.9839455-.8269912-.0839386-.4778548.1872399-.9470217.6432053-1.1128119.4559653-.1657902.9651545.0196329 1.2077402.4398031.2843876.4596821.882589.61017 1.3506397.3397768s.6365131-.8637835.3803603-1.3397768c-.7279453-1.2608382-2.2560751-1.8170246-3.6241605-1.3190692-1.3680854.4979555-2.1811672 1.9062958-1.9283301 3.3400638.252837 1.433768 1.4986001 2.4790424 2.9544906 2.4790054.4851707.000473.9000069.3491365.9839455.8269912.0839386.4778548-.1872399.9470217-.6432053 1.1128119-.4559653.1657902-.9651545-.0196329-1.2077402-.4398031-.2843876-.4596821-.882589-.61017-1.3506397-.3397768s-.6365131.8637835-.3803603 1.3397768c.7279453 1.2608382 2.2560751 1.8170246 3.6241605 1.3190692 1.3680854-.4979555 2.1811672-1.9062958 1.9283301-3.3400638-.252837-1.433768-1.4986001-2.4790424-2.9544906-2.4790054z"/><path id="Shape" d="m27 27c.5522847 0 1-.4477153 1-1s-.4477153-1-1-1h-3c-1.1045695 0-2 .8954305-2 2v6c0 1.1045695.8954305 2 2 2h3c.5522847 0 1-.4477153 1-1s-.4477153-1-1-1h-3v-2h2c.5522847 0 1-.4477153 1-1s-.4477153-1-1-1h-2v-2z"/><path id="Shape" d="m39.164 25.014c-.5441602-.0903478-1.0587112.2769969-1.15.821l-.914 5.506-1.265-1.9c-.1961648-.2622542-.5044975-.4166681-.832-.4166681s-.6358352.1544139-.832.4166681l-1.265 1.9-.917-5.506c-.1024647-.5331533-.6116119-.8871593-1.1470763-.7975532-.5354645.0896062-.9016193.5900877-.8249237 1.1275532l1.333 8c.0677359.4044591.3755458.7265662.7765153.8125828.4009694.0860165.813813-.0814949 1.0414847-.4225828l1.832-2.755 1.835 2.752c.2276717.3410879.6405153.5085993 1.0414847.4225828.4009695-.0860166.7087794-.4081237.7765153-.8125828l1.333-8c.0890912-.5437833-.2785051-1.0571659-.822-1.148z"/><path id="Shape" d="m19 25c-.5522847 0-1 .4477153-1 1v4.49l-3.111-5.017c-.2349015-.3790479-.6923949-.5567545-1.1215704-.4356574-.4291754.1210971-.726305.5117297-.7284296.9576574l-.039 8c-.0013304.2660817.1034388.5217221.2911196.7103412.1876807.1886192.4427953.2946621.7088804.2946588.550338.0000069.9972483-.4446689 1-.995l.022-4.522 3.128 5.044c.235394.3798243.6942105.557379 1.1239658.4349568s.7261313-.5151047.7260342-.9619568v-8c0-.5522847-.4477153-1-1-1z"/></g></g></svg>